<svg xmlns="http://www.w3.org/2000/svg" width="35.019" height="30.635" viewBox="0 0 35.019 30.635"><g fill="#5DAFAC"><path d="M19.17 4.67l2.962-.013c.48-.01.895-.4.892-.897a.885.885 0 0 0-.9-.885l-2.952.01a.846.846 0 0 0-.874.865.883.883 0 0 0 .87.92z"/><path d="M34.076 17.397l-.05-.05-5.27-6.953-.01-9.518c.013-.5-.397-.88-.9-.872L13.497 0l-.034.002c-.513-.01-.897.41-.913.896v9.953a1.336 1.336 0 0 0-.386-.056c-.652.02-1.306.253-1.777.73-.48.484-.666 1.095-.662 1.683.004.74.3 1.45.664 1.815l.026.028.1.08a2.465 2.465 0 0 0-1.273 2.166c0 .63.25 1.27.723 1.752l2.596 2.6.014 3.482a.89.89 0 0 0 .888.91l4.946-.008c.316.525.493 1.058.615 1.556.153.674.184 1.364.17 2.096.023.478.41.9.905.897a.94.94 0 0 0 .907-.9c-.01-.844-.06-1.655-.232-2.483a7.023 7.023 0 0 0-.378-1.167l2.934.004.006-.01a.927.927 0 0 0 .914-.896c-.01-1.053.197-1.816.405-2.448.526-1.812.868-2.918-2.386-6.868-.966-1.196.048-2.84 1.283-1.5l.064.06 3.605 3.777c.158.167.382.275.643.302.502-.01.903-.438.888-.91l-.005-4.163 3.854 5.045.025.038c1.166 1.553.338 3.834-.436 5.96-.525 1.428-1.034 2.81-1.045 4.095l.008 1.23a.887.887 0 0 0 .89.888c.5-.01.892-.4.9-.893l-.018-1.214c.004-.947.46-2.195.935-3.48.944-2.576 1.946-5.33.216-7.653zm-22.858.377c-.598-.61.294-1.54.924-.99l.02.01.022.034.377.36.006 1.925-1.348-1.34zm1.34-3.3l-.012.193-.854-.89-.008-.028c-.552-.518.184-1.562.878-1.027l.01 1.56-.014.19zm14.404.833l-2.047-2.174-.017-.01c-2.777-3.066-6.49.81-4.024 3.807 2.666 3.224 2.416 3.984 2.072 5.23a8.7 8.7 0 0 0-.462 2.084l-8.116.01-.002-2.925.005-.01-.023-.013.014-.023-.007-.027.01-.016-.017-.01c.025-6.494-.002-12.975-.004-19.463l12.62.023c.005 4.492-.002 9.003 0 13.517zM5.623 8.988c-.03-.17-.152-.296-.29-.432a.915.915 0 0 0-.928-.102L.555 9.946c-.436.185-.666.71-.503 1.147.2.495.698.714 1.164.51l1.516-.576A9.062 9.062 0 0 0 2.2 15.24c.225 2.24 1.348 4.415 3.26 5.954.384.294.96.243 1.26-.157.316-.36.25-.944-.134-1.238a7 7 0 0 1-2.608-4.758c-.153-1.27.068-2.58.615-3.804l.877 2.234c.177.454.68.707 1.147.503a.888.888 0 0 0 .52-1.14L5.623 8.99z"/></g></svg>